%
M48
M72
T01C0.01575
T02C0.02559
T03C0.02953
T04C0.03543
T05C0.04000
T06C0.04300
T07C0.06500
T08C0.06720
T09C0.06900
T10C0.16100
%
T01
X79681Y47896
X84012Y53014
X99622Y30833
X31122Y105833
X47122Y106833
X72122Y136833
X56740Y180562
X13933Y147503
X116122Y190833
X128106Y155377
X132043Y151440
X147122Y136833
X122122Y106833
X184622Y169333
X187122Y201833
X249153Y190810
X258027Y182936
X266401Y174625
X278106Y169333
X267122Y136833
X272122Y106833
X309208Y100259
X197122Y106833
X197122Y136833
X277122Y216833
X288622Y235333
X288122Y245333
T02
X34122Y172333
X30122Y168333
X30122Y176333
X30122Y184333
X30122Y157333
T03
X73622Y269333
X83464Y279176
X63779Y279176
T04
X308342Y259550
X308342Y231597
T05
X269523Y275573
X259523Y275573
X249523Y275573
X239523Y275573
X229523Y275573
X219523Y275573
X209523Y275573
X199523Y275573
X183578Y275573
X173578Y275573
X163578Y275573
X153578Y275573
X143578Y275573
X133578Y275573
X123578Y275573
X113578Y275573
X103578Y275573
X93578Y275573
X93618Y255770
X103618Y255770
X113618Y255770
X123618Y255770
X133618Y255770
X143618Y255770
X153618Y255770
X163618Y255770
X173618Y255770
X183618Y255770
X203106Y255692
X203106Y245692
X203106Y235692
X139917Y210180
X139917Y200180
X83618Y255770
X73618Y255770
X63618Y255770
X53618Y255770
X43618Y255770
X33618Y255770
X129602Y85692
X139602Y85692
X149602Y85692
X159602Y85692
X169602Y85692
X179602Y85692
X189602Y85692
X199602Y85692
X219563Y85692
X229563Y85692
X239563Y85692
X249563Y85692
X259563Y85692
X269563Y85692
X297397Y137448
X289051Y11018
X279051Y11018
X269051Y11018
X259051Y11018
X249051Y11018
X239051Y11018
X229051Y11018
X219051Y11018
X99090Y11018
X89090Y11018
X79090Y11018
X69090Y11018
X59090Y11018
X49090Y11018
X39090Y11018
X29090Y11018
T06
X41216Y71046
X51216Y71046
X116216Y71046
X126216Y71046
X192988Y71046
X202988Y71046
X267988Y71046
X277988Y71046
T07
X155960Y200077
X155960Y210266
T08
X141216Y51046
X177988Y51046
X217988Y51046
X252988Y51046
X292988Y51046
X101216Y51046
X66216Y51046
X26216Y51046
T09
X36216Y31046
X61216Y41046
X111216Y31046
X136216Y41046
X187988Y31046
X212988Y41046
X262988Y31046
X287988Y41046
T10
X13933Y13644
X46216Y51046
X121216Y51046
X197988Y51046
X272988Y51046
X305271Y13644
X305271Y273487
X13933Y273487
M30
