G75*
%MOIN*%
%OFA0B0*%
%FSLAX25Y25*%
%IPPOS*%
%LPD*%
%AMOC8*
5,1,8,0,0,1.08239X$1,22.5*
%
%ADD10C,0.07100*%
%ADD11C,0.16700*%
%ADD12R,0.07600X0.06600*%
%ADD13R,0.06112X0.06112*%
%ADD14C,0.07000*%
%ADD15R,0.08000X0.08000*%
%ADD16C,0.08000*%
%ADD17C,0.04143*%
%ADD18C,0.07320*%
%ADD19C,0.08600*%
%ADD20C,0.13300*%
%ADD21OC8,0.07000*%
%ADD22C,0.05953*%
%ADD23R,0.06506X0.04537*%
%ADD24C,0.04759*%
%ADD25C,0.03775*%
D10*
X0155960Y0200077D03*
X0155960Y0210266D03*
D11*
X0013933Y0013644D03*
X0046216Y0051046D03*
X0121216Y0051046D03*
X0197988Y0051046D03*
X0272988Y0051046D03*
X0305271Y0013644D03*
X0305271Y0273487D03*
X0013933Y0273487D03*
D12*
X0066720Y0112867D03*
X0066720Y0100367D03*
X0141708Y0100367D03*
X0141708Y0112867D03*
X0218634Y0112867D03*
X0218634Y0100367D03*
X0293622Y0100367D03*
X0293622Y0112867D03*
D13*
X0308602Y0042937D03*
X0308602Y0027976D03*
X0238005Y0024039D03*
X0238005Y0039000D03*
X0160365Y0039000D03*
X0160365Y0024039D03*
X0086299Y0024039D03*
X0086299Y0039000D03*
D14*
X0089090Y0014218D02*
X0089090Y0007818D01*
X0079090Y0007818D02*
X0079090Y0014218D01*
X0069090Y0014218D02*
X0069090Y0007818D01*
X0059090Y0007818D02*
X0059090Y0014218D01*
X0049090Y0014218D02*
X0049090Y0007818D01*
X0039090Y0007818D02*
X0039090Y0014218D01*
X0029090Y0014218D02*
X0029090Y0007818D01*
X0099090Y0007818D02*
X0099090Y0014218D01*
X0129602Y0082492D02*
X0129602Y0088892D01*
X0139602Y0088892D02*
X0139602Y0082492D01*
X0149602Y0082492D02*
X0149602Y0088892D01*
X0159602Y0088892D02*
X0159602Y0082492D01*
X0169602Y0082492D02*
X0169602Y0088892D01*
X0179602Y0088892D02*
X0179602Y0082492D01*
X0189602Y0082492D02*
X0189602Y0088892D01*
X0199602Y0088892D02*
X0199602Y0082492D01*
X0219563Y0082492D02*
X0219563Y0088892D01*
X0229563Y0088892D02*
X0229563Y0082492D01*
X0239563Y0082492D02*
X0239563Y0088892D01*
X0249563Y0088892D02*
X0249563Y0082492D01*
X0259563Y0082492D02*
X0259563Y0088892D01*
X0269563Y0088892D02*
X0269563Y0082492D01*
X0269051Y0014218D02*
X0269051Y0007818D01*
X0259051Y0007818D02*
X0259051Y0014218D01*
X0249051Y0014218D02*
X0249051Y0007818D01*
X0239051Y0007818D02*
X0239051Y0014218D01*
X0229051Y0014218D02*
X0229051Y0007818D01*
X0219051Y0007818D02*
X0219051Y0014218D01*
X0279051Y0014218D02*
X0279051Y0007818D01*
X0289051Y0007818D02*
X0289051Y0014218D01*
X0143117Y0200180D02*
X0136717Y0200180D01*
X0136717Y0210180D02*
X0143117Y0210180D01*
X0199906Y0235692D02*
X0206306Y0235692D01*
X0206306Y0245692D02*
X0199906Y0245692D01*
X0199906Y0255692D02*
X0206306Y0255692D01*
X0209523Y0272373D02*
X0209523Y0278773D01*
X0199523Y0278773D02*
X0199523Y0272373D01*
X0183578Y0272373D02*
X0183578Y0278773D01*
X0173578Y0278773D02*
X0173578Y0272373D01*
X0163578Y0272373D02*
X0163578Y0278773D01*
X0153578Y0278773D02*
X0153578Y0272373D01*
X0143578Y0272373D02*
X0143578Y0278773D01*
X0133578Y0278773D02*
X0133578Y0272373D01*
X0123578Y0272373D02*
X0123578Y0278773D01*
X0113578Y0278773D02*
X0113578Y0272373D01*
X0103578Y0272373D02*
X0103578Y0278773D01*
X0093578Y0278773D02*
X0093578Y0272373D01*
X0219523Y0272373D02*
X0219523Y0278773D01*
X0229523Y0278773D02*
X0229523Y0272373D01*
X0239523Y0272373D02*
X0239523Y0278773D01*
X0249523Y0278773D02*
X0249523Y0272373D01*
X0259523Y0272373D02*
X0259523Y0278773D01*
X0269523Y0278773D02*
X0269523Y0272373D01*
D15*
X0033618Y0255770D03*
D16*
X0043618Y0255770D03*
X0053618Y0255770D03*
X0063618Y0255770D03*
X0073618Y0255770D03*
X0083618Y0255770D03*
X0093618Y0255770D03*
X0103618Y0255770D03*
X0113618Y0255770D03*
X0123618Y0255770D03*
X0133618Y0255770D03*
X0143618Y0255770D03*
X0153618Y0255770D03*
X0163618Y0255770D03*
X0173618Y0255770D03*
X0183618Y0255770D03*
D17*
X0308342Y0259550D03*
X0308342Y0231597D03*
D18*
X0292988Y0051046D03*
X0252988Y0051046D03*
X0217988Y0051046D03*
X0177988Y0051046D03*
X0141216Y0051046D03*
X0101216Y0051046D03*
X0066216Y0051046D03*
X0026216Y0051046D03*
D19*
X0041216Y0071046D03*
X0051216Y0071046D03*
X0116216Y0071046D03*
X0126216Y0071046D03*
X0192988Y0071046D03*
X0202988Y0071046D03*
X0267988Y0071046D03*
X0277988Y0071046D03*
D20*
X0287988Y0041046D03*
X0262988Y0031046D03*
X0212988Y0041046D03*
X0187988Y0031046D03*
X0136216Y0041046D03*
X0111216Y0031046D03*
X0061216Y0041046D03*
X0036216Y0031046D03*
D21*
X0297397Y0137448D03*
D22*
X0083464Y0279176D03*
X0073622Y0269333D03*
X0063779Y0279176D03*
D23*
X0056256Y0113133D03*
X0056256Y0100534D03*
X0036177Y0100534D03*
X0036177Y0113133D03*
X0111177Y0113133D03*
X0111177Y0100534D03*
X0131256Y0100534D03*
X0131256Y0113133D03*
X0187949Y0113133D03*
X0187949Y0100534D03*
X0208027Y0100534D03*
X0208027Y0113133D03*
X0262949Y0113133D03*
X0262949Y0100534D03*
X0283027Y0100534D03*
X0283027Y0113133D03*
D24*
X0034122Y0172333D03*
X0030122Y0168333D03*
X0030122Y0176333D03*
X0030122Y0184333D03*
X0030122Y0157333D03*
D25*
X0013933Y0147503D03*
X0047122Y0106833D03*
X0031122Y0105833D03*
X0072122Y0136833D03*
X0056740Y0180562D03*
X0116122Y0190833D03*
X0128106Y0155377D03*
X0132043Y0151440D03*
X0147122Y0136833D03*
X0122122Y0106833D03*
X0084012Y0053014D03*
X0079681Y0047896D03*
X0099622Y0030833D03*
X0197122Y0106833D03*
X0197122Y0136833D03*
X0184622Y0169333D03*
X0187122Y0201833D03*
X0249153Y0190810D03*
X0258027Y0182936D03*
X0266401Y0174625D03*
X0278106Y0169333D03*
X0267122Y0136833D03*
X0272122Y0106833D03*
X0309208Y0100259D03*
X0277122Y0216833D03*
X0288622Y0235333D03*
X0288122Y0245333D03*
M02*
