G75*
%MOIN*%
%OFA0B0*%
%FSLAX25Y25*%
%IPPOS*%
%LPD*%
%AMOC8*
5,1,8,0,0,1.08239X$1,22.5*
%
%ADD10R,0.07000X0.06000*%
%ADD11R,0.05512X0.05512*%
%ADD12C,0.06400*%
%ADD13R,0.07400X0.07400*%
%ADD14C,0.07400*%
%ADD15C,0.08000*%
%ADD16C,0.12700*%
%ADD17OC8,0.06400*%
%ADD18C,0.05353*%
%ADD19R,0.05906X0.03937*%
%ADD20C,0.04159*%
%ADD21C,0.02400*%
%ADD22C,0.03175*%
%ADD23C,0.02000*%
%ADD24C,0.01600*%
%ADD25C,0.01000*%
%ADD26C,0.01200*%
%ADD27C,0.03200*%
D10*
X0066720Y0100367D03*
X0066720Y0112867D03*
X0141708Y0112867D03*
X0141708Y0100367D03*
X0218634Y0100367D03*
X0218634Y0112867D03*
X0293622Y0112867D03*
X0293622Y0100367D03*
D11*
X0308602Y0042937D03*
X0308602Y0027976D03*
X0238005Y0024039D03*
X0238005Y0039000D03*
X0160365Y0039000D03*
X0160365Y0024039D03*
X0086299Y0024039D03*
X0086299Y0039000D03*
D12*
X0089090Y0014218D02*
X0089090Y0007818D01*
X0079090Y0007818D02*
X0079090Y0014218D01*
X0069090Y0014218D02*
X0069090Y0007818D01*
X0059090Y0007818D02*
X0059090Y0014218D01*
X0049090Y0014218D02*
X0049090Y0007818D01*
X0039090Y0007818D02*
X0039090Y0014218D01*
X0029090Y0014218D02*
X0029090Y0007818D01*
X0099090Y0007818D02*
X0099090Y0014218D01*
X0129602Y0082492D02*
X0129602Y0088892D01*
X0139602Y0088892D02*
X0139602Y0082492D01*
X0149602Y0082492D02*
X0149602Y0088892D01*
X0159602Y0088892D02*
X0159602Y0082492D01*
X0169602Y0082492D02*
X0169602Y0088892D01*
X0179602Y0088892D02*
X0179602Y0082492D01*
X0189602Y0082492D02*
X0189602Y0088892D01*
X0199602Y0088892D02*
X0199602Y0082492D01*
X0219563Y0082492D02*
X0219563Y0088892D01*
X0229563Y0088892D02*
X0229563Y0082492D01*
X0239563Y0082492D02*
X0239563Y0088892D01*
X0249563Y0088892D02*
X0249563Y0082492D01*
X0259563Y0082492D02*
X0259563Y0088892D01*
X0269563Y0088892D02*
X0269563Y0082492D01*
X0269051Y0014218D02*
X0269051Y0007818D01*
X0259051Y0007818D02*
X0259051Y0014218D01*
X0249051Y0014218D02*
X0249051Y0007818D01*
X0239051Y0007818D02*
X0239051Y0014218D01*
X0229051Y0014218D02*
X0229051Y0007818D01*
X0219051Y0007818D02*
X0219051Y0014218D01*
X0279051Y0014218D02*
X0279051Y0007818D01*
X0289051Y0007818D02*
X0289051Y0014218D01*
X0143117Y0200180D02*
X0136717Y0200180D01*
X0136717Y0210180D02*
X0143117Y0210180D01*
X0199906Y0235692D02*
X0206306Y0235692D01*
X0206306Y0245692D02*
X0199906Y0245692D01*
X0199906Y0255692D02*
X0206306Y0255692D01*
X0209523Y0272373D02*
X0209523Y0278773D01*
X0199523Y0278773D02*
X0199523Y0272373D01*
X0183578Y0272373D02*
X0183578Y0278773D01*
X0173578Y0278773D02*
X0173578Y0272373D01*
X0163578Y0272373D02*
X0163578Y0278773D01*
X0153578Y0278773D02*
X0153578Y0272373D01*
X0143578Y0272373D02*
X0143578Y0278773D01*
X0133578Y0278773D02*
X0133578Y0272373D01*
X0123578Y0272373D02*
X0123578Y0278773D01*
X0113578Y0278773D02*
X0113578Y0272373D01*
X0103578Y0272373D02*
X0103578Y0278773D01*
X0093578Y0278773D02*
X0093578Y0272373D01*
X0219523Y0272373D02*
X0219523Y0278773D01*
X0229523Y0278773D02*
X0229523Y0272373D01*
X0239523Y0272373D02*
X0239523Y0278773D01*
X0249523Y0278773D02*
X0249523Y0272373D01*
X0259523Y0272373D02*
X0259523Y0278773D01*
X0269523Y0278773D02*
X0269523Y0272373D01*
D13*
X0033618Y0255770D03*
D14*
X0043618Y0255770D03*
X0053618Y0255770D03*
X0063618Y0255770D03*
X0073618Y0255770D03*
X0083618Y0255770D03*
X0093618Y0255770D03*
X0103618Y0255770D03*
X0113618Y0255770D03*
X0123618Y0255770D03*
X0133618Y0255770D03*
X0143618Y0255770D03*
X0153618Y0255770D03*
X0163618Y0255770D03*
X0173618Y0255770D03*
X0183618Y0255770D03*
D15*
X0192988Y0071046D03*
X0202988Y0071046D03*
X0267988Y0071046D03*
X0277988Y0071046D03*
X0126216Y0071046D03*
X0116216Y0071046D03*
X0051216Y0071046D03*
X0041216Y0071046D03*
D16*
X0061216Y0041046D03*
X0036216Y0031046D03*
X0111216Y0031046D03*
X0136216Y0041046D03*
X0187988Y0031046D03*
X0212988Y0041046D03*
X0262988Y0031046D03*
X0287988Y0041046D03*
D17*
X0297397Y0137448D03*
D18*
X0083464Y0279176D03*
X0073622Y0269333D03*
X0063779Y0279176D03*
D19*
X0056256Y0113133D03*
X0056256Y0100534D03*
X0036177Y0100534D03*
X0036177Y0113133D03*
X0111177Y0113133D03*
X0111177Y0100534D03*
X0131256Y0100534D03*
X0131256Y0113133D03*
X0187949Y0113133D03*
X0187949Y0100534D03*
X0208027Y0100534D03*
X0208027Y0113133D03*
X0262949Y0113133D03*
X0262949Y0100534D03*
X0283027Y0100534D03*
X0283027Y0113133D03*
D20*
X0034122Y0172333D03*
X0030122Y0168333D03*
X0030122Y0176333D03*
X0030122Y0184333D03*
X0030122Y0157333D03*
D21*
X0072122Y0136833D02*
X0147122Y0136833D01*
X0197122Y0136833D01*
X0267122Y0136833D01*
X0265823Y0113133D02*
X0272122Y0106833D01*
X0287588Y0106833D01*
X0293622Y0112867D01*
X0293454Y0100534D02*
X0293622Y0100367D01*
X0309100Y0100367D02*
X0309208Y0100259D01*
X0265823Y0113133D02*
X0262949Y0113133D01*
X0218634Y0112867D02*
X0212600Y0106833D01*
X0197122Y0106833D01*
X0190823Y0113133D01*
X0187949Y0113133D01*
X0141708Y0112867D02*
X0135675Y0106833D01*
X0122122Y0106833D01*
X0115823Y0113133D01*
X0111177Y0113133D01*
X0066720Y0112867D02*
X0060687Y0106833D01*
X0047122Y0106833D01*
X0040823Y0113133D01*
X0036177Y0113133D01*
X0203106Y0220849D02*
X0207122Y0216833D01*
X0277122Y0216833D01*
X0288122Y0245333D02*
X0288122Y0245833D01*
X0278122Y0255833D01*
X0203248Y0255833D01*
X0203106Y0255692D01*
X0203106Y0235692D02*
X0203106Y0220849D01*
D22*
X0187122Y0201833D03*
X0184622Y0169333D03*
X0197122Y0136833D03*
X0197122Y0106833D03*
X0147122Y0136833D03*
X0132043Y0151440D03*
X0128106Y0155377D03*
X0116122Y0190833D03*
X0056740Y0180562D03*
X0013933Y0147503D03*
X0047122Y0106833D03*
X0031122Y0105833D03*
X0072122Y0136833D03*
X0122122Y0106833D03*
X0084012Y0053014D03*
X0079681Y0047896D03*
X0099622Y0030833D03*
X0258027Y0182936D03*
X0266401Y0174625D03*
X0278106Y0169333D03*
X0249153Y0190810D03*
X0277122Y0216833D03*
X0288622Y0235333D03*
X0288122Y0245333D03*
X0267122Y0136833D03*
X0272122Y0106833D03*
X0309208Y0100259D03*
D23*
X0029090Y0011018D02*
X0025122Y0014987D01*
X0025122Y0028833D01*
X0017622Y0036333D01*
X0017622Y0057333D01*
X0022122Y0061833D01*
X0025122Y0061833D01*
X0029681Y0066392D01*
X0029681Y0066333D01*
X0029681Y0066392D02*
X0029681Y0076833D01*
X0053382Y0100534D01*
X0056256Y0100534D01*
X0056423Y0100367D01*
X0066720Y0100367D01*
X0072254Y0094833D01*
X0120122Y0094833D01*
X0125823Y0100534D01*
X0131256Y0100534D01*
X0131423Y0100367D01*
X0141708Y0100367D01*
X0147242Y0094833D01*
X0166622Y0094833D01*
X0169602Y0091853D01*
X0169602Y0085692D01*
X0169622Y0085711D01*
X0169622Y0091333D01*
X0173122Y0094833D01*
X0195122Y0094833D01*
X0200823Y0100534D01*
X0208027Y0100534D01*
X0208195Y0100367D01*
X0218634Y0100367D01*
X0223667Y0095333D01*
X0270622Y0095333D01*
X0275823Y0100534D01*
X0283027Y0100534D01*
X0293454Y0100534D01*
X0293622Y0100367D02*
X0309100Y0100367D01*
X0278106Y0169333D02*
X0184622Y0169333D01*
X0039090Y0011018D02*
X0029090Y0011018D01*
D24*
X0203106Y0235692D02*
X0201964Y0236833D01*
X0187122Y0236833D01*
X0173618Y0250337D01*
X0173618Y0255770D01*
D25*
X0163775Y0255770D02*
X0183578Y0275573D01*
X0173578Y0275573D02*
X0153775Y0255770D01*
X0153618Y0255770D01*
X0143775Y0255770D02*
X0163578Y0275573D01*
X0153578Y0275573D02*
X0133775Y0255770D01*
X0133618Y0255770D01*
X0131649Y0263251D02*
X0092673Y0263251D01*
X0091098Y0263251D01*
X0083618Y0255770D01*
X0084622Y0263833D02*
X0069122Y0263833D01*
X0063622Y0258333D01*
X0063622Y0255774D01*
X0063618Y0255770D01*
X0084622Y0263833D02*
X0087622Y0266833D01*
X0127122Y0266833D01*
X0133578Y0273290D01*
X0133578Y0275573D01*
X0143578Y0275573D02*
X0143578Y0275180D01*
X0131649Y0263251D01*
X0143618Y0255770D02*
X0143775Y0255770D01*
X0163618Y0255770D02*
X0163775Y0255770D01*
X0116122Y0190833D02*
X0249130Y0190833D01*
X0249153Y0190810D01*
X0258027Y0182936D02*
X0155665Y0182936D01*
X0128106Y0155377D01*
X0132043Y0151440D02*
X0155228Y0174625D01*
X0266401Y0174625D01*
X0291236Y0137448D02*
X0283122Y0129333D01*
X0283122Y0113227D01*
X0283027Y0113133D01*
X0262949Y0100534D02*
X0236649Y0126833D01*
X0217122Y0126833D01*
X0208027Y0117739D01*
X0208027Y0113133D01*
X0187949Y0100534D02*
X0161649Y0126833D01*
X0142122Y0126833D01*
X0131256Y0115967D01*
X0131256Y0113133D01*
X0111177Y0100534D02*
X0089878Y0121833D01*
X0062122Y0121833D01*
X0056256Y0115967D01*
X0056256Y0113133D01*
X0036177Y0100534D02*
X0031122Y0105589D01*
X0031122Y0105833D01*
X0013933Y0147503D02*
X0013933Y0171125D01*
X0023370Y0180562D01*
X0056740Y0180562D01*
X0091098Y0263251D02*
X0092673Y0263251D01*
X0291236Y0137448D02*
X0297397Y0137448D01*
X0308602Y0042937D02*
X0298995Y0029392D01*
X0297397Y0029392D01*
X0297122Y0029392D01*
X0264641Y0029392D01*
X0262988Y0031046D01*
X0256416Y0024039D02*
X0257622Y0022833D01*
X0288122Y0022833D01*
X0290122Y0024833D01*
X0298622Y0024833D01*
X0300622Y0026833D01*
X0307459Y0026833D01*
X0308602Y0027976D01*
X0256416Y0024039D02*
X0238005Y0024039D01*
X0236299Y0022333D01*
X0182122Y0022333D01*
X0180416Y0024039D01*
X0160365Y0024039D01*
X0158490Y0024414D01*
X0129106Y0024414D01*
X0127525Y0022833D01*
X0104122Y0022833D01*
X0102916Y0024039D01*
X0086299Y0024039D01*
X0086299Y0013810D01*
X0089090Y0011018D01*
X0086299Y0024039D02*
X0084327Y0024039D01*
X0074692Y0029392D02*
X0074692Y0029403D01*
X0082122Y0036833D01*
X0084133Y0036833D01*
X0086299Y0039000D01*
X0079681Y0044747D02*
X0079681Y0047896D01*
X0087059Y0047896D01*
X0098122Y0036833D01*
X0098122Y0032333D01*
X0099622Y0030833D01*
X0102651Y0038496D02*
X0126415Y0038496D01*
X0128965Y0041046D01*
X0136216Y0041046D01*
X0142122Y0029392D02*
X0112870Y0029392D01*
X0111216Y0031046D01*
X0102651Y0038496D02*
X0088132Y0053014D01*
X0084012Y0053014D01*
X0084195Y0053014D01*
X0079681Y0044747D02*
X0075980Y0041046D01*
X0061216Y0041046D01*
X0074692Y0029392D02*
X0037870Y0029392D01*
X0036216Y0031046D01*
X0142122Y0029392D02*
X0143854Y0029392D01*
X0149257Y0029392D01*
X0160365Y0039000D01*
X0187988Y0031046D02*
X0230176Y0031046D01*
X0230176Y0031171D01*
X0238005Y0039000D01*
D26*
X0053618Y0255770D02*
X0067181Y0269333D01*
X0073622Y0269333D01*
D27*
X0187122Y0201833D02*
X0282122Y0201833D01*
X0288622Y0208333D01*
X0288622Y0235333D01*
M02*
